<svg version="1.0" xmlns="http://www.w3.org/2000/svg"
 width="1280.000000pt" height="916.000000pt" viewBox="0 0 1280.000000 916.000000"
 preserveAspectRatio="xMidYMid meet">

<g transform="translate(0.000000,916.000000) scale(0.100000,-0.100000)"
fill="#000000" stroke="none">
<path d="M11017 8722 c-69 -38 -175 -132 -276 -242 -47 -52 -102 -111 -121
-130 -19 -20 -48 -54 -65 -75 -16 -22 -36 -46 -45 -55 -12 -13 -74 -88 -123
-150 -7 -8 -31 -38 -54 -67 -24 -28 -43 -56 -43 -62 0 -5 -9 -15 -20 -21 -11
-6 -20 -17 -20 -26 0 -8 -6 -17 -14 -20 -7 -3 -27 -26 -44 -52 -17 -26 -43
-59 -59 -73 -26 -24 -133 -65 -228 -88 -37 -9 -82 -23 -130 -42 -11 -4 -47
-17 -80 -28 -107 -35 -180 -66 -336 -141 -101 -48 -149 -97 -149 -153 0 -36
11 -50 48 -62 18 -5 33 3 78 44 31 28 61 51 67 51 6 0 18 6 26 13 9 8 45 24
81 36 36 13 73 27 82 32 10 5 26 9 37 9 10 0 24 7 31 15 7 8 25 15 40 15 15 0
41 7 56 15 16 8 38 15 50 15 11 0 24 4 30 9 11 11 107 32 113 25 8 -7 -32 -76
-46 -81 -7 -3 -13 -13 -13 -23 0 -10 -6 -20 -14 -23 -8 -3 -20 -16 -28 -29
-31 -56 -61 -98 -69 -98 -5 0 -9 -6 -9 -14 0 -8 -8 -22 -17 -32 -10 -10 -22
-25 -28 -34 -40 -66 -58 -90 -66 -90 -5 0 -9 -9 -9 -19 0 -11 -8 -26 -17 -33
-21 -15 -63 -73 -63 -86 0 -5 -9 -17 -20 -27 -11 -10 -20 -24 -20 -31 0 -8 -9
-19 -20 -26 -11 -7 -20 -20 -20 -29 0 -8 -11 -25 -25 -37 -14 -12 -25 -28 -25
-36 0 -8 -7 -16 -15 -20 -8 -3 -15 -11 -15 -17 0 -7 -7 -21 -17 -31 -9 -10
-21 -26 -27 -37 -12 -19 -83 -129 -153 -238 -24 -35 -43 -68 -43 -73 0 -4 -7
-14 -16 -21 -9 -7 -19 -20 -23 -29 -5 -13 -80 -139 -123 -208 -32 -51 -106
-182 -148 -262 -25 -48 -29 -55 -60 -107 -16 -29 -30 -58 -30 -65 0 -7 -9 -24
-20 -38 -11 -14 -20 -30 -20 -35 0 -6 -20 -49 -43 -95 l-44 -85 -49 -5 c-41
-5 -75 -23 -211 -113 -90 -59 -171 -110 -180 -114 -10 -4 -47 -25 -83 -49
-204 -132 -720 -406 -937 -499 -48 -20 -104 -46 -123 -56 -48 -25 -186 -79
-335 -131 -79 -28 -106 -32 -216 -35 -120 -2 -127 -1 -162 23 -44 30 -47 57
-14 124 40 81 78 131 157 214 l78 81 99 7 c210 16 374 55 480 114 23 13 46 24
53 24 21 0 116 72 167 128 57 62 66 87 61 171 -3 54 -3 55 -51 80 -47 24 -52
24 -120 13 -68 -12 -136 -31 -175 -51 -9 -4 -57 -27 -106 -51 -173 -82 -403
-248 -566 -407 -64 -63 -113 -103 -126 -103 -11 0 -42 -15 -69 -33 -90 -59
-197 -127 -201 -127 -3 0 -44 -26 -92 -58 -48 -31 -112 -70 -142 -86 -30 -16
-79 -44 -108 -63 -29 -18 -57 -33 -62 -33 -6 0 -10 -4 -10 -9 0 -5 -8 -12 -18
-15 -10 -4 -77 -38 -148 -78 -222 -123 -625 -320 -749 -367 -33 -12 -68 -27
-77 -32 -10 -5 -23 -9 -29 -9 -6 0 -25 -6 -42 -13 -57 -24 -101 -39 -132 -44
-16 -3 -34 -9 -40 -13 -11 -9 -117 -30 -152 -30 -18 0 -23 5 -23 26 0 14 9 37
20 51 11 14 20 31 20 38 0 6 9 20 20 30 11 10 20 24 20 31 0 7 6 17 13 21 7 4
20 19 29 33 9 14 39 50 67 80 28 30 50 60 51 67 0 6 9 15 20 18 11 3 20 11 20
16 0 5 54 63 120 129 75 75 120 128 120 141 0 21 -45 69 -64 69 -6 0 -37 -18
-69 -39 -32 -22 -65 -37 -73 -34 -8 3 -22 20 -31 37 -29 58 -76 89 -166 110
-58 14 -74 14 -149 0 -146 -26 -248 -74 -448 -211 -46 -32 -265 -244 -334
-323 -73 -86 -110 -120 -127 -120 -10 0 -55 -28 -101 -63 -46 -35 -130 -95
-188 -134 -58 -38 -156 -105 -219 -147 -62 -42 -116 -76 -119 -76 -3 0 -19
-10 -36 -23 -17 -13 -67 -44 -111 -70 -44 -26 -87 -52 -95 -57 -8 -6 -22 -13
-30 -17 -8 -3 -28 -16 -45 -27 -16 -12 -47 -29 -68 -38 -22 -10 -59 -31 -83
-48 -25 -16 -50 -30 -55 -30 -6 0 -30 -11 -54 -24 -53 -30 -174 -80 -234 -97
-38 -11 -45 -11 -56 4 -17 24 -7 100 21 162 13 27 24 56 24 63 0 6 4 12 9 12
5 0 14 20 20 44 6 24 17 49 26 56 8 7 15 23 15 36 0 12 4 25 9 29 12 7 71 124
71 140 0 7 9 24 20 38 11 14 20 30 20 37 0 7 9 23 20 37 11 14 20 34 20 43 0
10 6 22 13 28 6 6 27 40 46 76 18 36 40 71 47 77 8 6 14 16 14 21 0 13 37 58
119 143 37 39 110 117 161 175 96 108 136 153 180 200 14 14 43 48 65 75 22
26 57 64 77 84 21 20 38 39 38 43 0 4 10 18 22 31 36 36 88 97 138 157 60 74
59 73 135 160 35 41 65 81 65 88 0 6 4 12 8 12 5 0 43 44 85 98 43 53 89 111
103 127 14 17 51 64 82 105 31 41 63 79 69 83 7 4 13 12 13 18 0 5 34 52 76
104 83 103 131 135 205 135 21 0 40 4 44 9 3 5 30 13 60 16 31 4 58 11 61 16
3 5 15 9 27 9 12 0 84 16 160 35 76 19 148 35 160 35 29 0 90 22 111 39 12 10
16 27 14 60 l-3 46 -70 0 c-68 -1 -335 -55 -472 -96 -54 -17 -70 8 -33 52 44
52 100 129 100 137 0 5 11 19 25 32 14 13 25 29 25 37 0 7 4 13 8 13 5 0 16
16 25 35 9 19 21 35 26 35 5 0 11 8 15 18 3 9 19 37 36 62 16 25 34 54 39 65
5 12 16 27 25 34 9 7 16 21 16 31 0 10 7 23 15 30 8 7 17 28 21 46 3 19 14 42
23 51 26 26 22 112 -7 141 -35 35 -125 25 -162 -18 -3 -4 -34 -29 -70 -56 -36
-27 -92 -78 -125 -114 -33 -36 -70 -74 -82 -86 -23 -23 -92 -101 -152 -172
-20 -24 -46 -54 -58 -67 -13 -12 -23 -26 -23 -31 0 -5 -8 -17 -17 -26 -26 -24
-55 -58 -89 -103 -16 -22 -35 -44 -41 -48 -7 -4 -13 -14 -13 -22 0 -8 -9 -20
-20 -27 -11 -7 -20 -17 -20 -22 0 -5 -17 -28 -37 -51 -21 -23 -57 -67 -80 -97
-31 -42 -50 -58 -75 -63 -18 -3 -42 -10 -53 -14 -11 -5 -45 -16 -75 -25 -52
-15 -223 -70 -300 -97 -19 -6 -47 -18 -62 -25 -14 -8 -32 -14 -38 -14 -7 0
-69 -28 -138 -61 -134 -66 -212 -129 -212 -171 1 -64 80 -91 120 -41 22 28
105 86 136 95 10 3 57 20 104 38 47 17 99 35 115 40 46 13 151 50 214 76 22 9
44 13 51 9 14 -9 3 -44 -25 -75 -20 -23 -82 -108 -192 -265 -23 -33 -59 -84
-80 -114 -21 -29 -42 -61 -48 -70 -5 -9 -20 -31 -32 -48 -13 -17 -23 -36 -23
-41 0 -5 -7 -12 -15 -16 -8 -3 -15 -12 -15 -20 0 -8 -4 -16 -8 -18 -11 -4 -82
-115 -82 -128 0 -5 -6 -13 -13 -17 -11 -7 -27 -29 -62 -84 -18 -29 -67 -103
-84 -128 -36 -53 -51 -78 -71 -113 -11 -20 -24 -39 -30 -43 -5 -3 -10 -15 -10
-26 0 -10 -9 -24 -20 -31 -11 -7 -20 -20 -20 -29 0 -9 -7 -22 -15 -29 -13 -11
-51 -71 -95 -152 -6 -10 -13 -24 -17 -32 -5 -7 -20 -31 -34 -52 -14 -21 -39
-64 -54 -94 -16 -30 -37 -67 -47 -82 -10 -14 -18 -33 -18 -41 0 -7 -9 -24 -20
-37 -11 -13 -20 -29 -20 -35 0 -7 -9 -24 -20 -38 -11 -14 -20 -33 -20 -44 0
-10 -9 -29 -20 -43 -11 -14 -20 -32 -20 -41 0 -9 -7 -22 -15 -29 -8 -7 -15
-17 -15 -24 0 -11 -34 -87 -71 -158 -10 -20 -19 -44 -19 -53 0 -8 -9 -32 -20
-52 -11 -21 -20 -49 -20 -63 0 -14 -9 -38 -20 -55 -24 -36 -28 -155 -7 -177 7
-7 20 -25 29 -40 36 -56 131 -61 253 -14 85 33 175 73 195 86 8 5 35 19 60 32
25 12 73 39 107 60 34 20 86 49 115 64 54 26 152 89 176 112 7 6 17 12 22 12
9 0 160 89 170 99 11 13 101 71 109 71 5 0 11 7 15 15 3 8 10 15 16 15 6 0 34
17 63 38 49 36 109 72 122 72 11 0 5 -49 -10 -76 -9 -18 -15 -57 -15 -105 0
-89 17 -120 76 -139 36 -12 82 -5 159 24 65 24 223 110 272 147 29 21 55 39
58 39 3 0 11 5 18 10 7 6 50 37 97 70 47 33 92 65 100 72 8 8 27 20 42 27 14
7 40 26 56 41 44 39 100 72 112 65 5 -3 10 -33 10 -65 0 -57 3 -63 43 -96 49
-41 115 -44 233 -13 44 11 95 24 114 28 19 5 46 13 60 18 14 6 50 18 80 28 30
9 64 21 75 26 11 4 43 17 70 28 28 10 64 26 80 35 17 9 34 16 38 16 9 0 55 21
237 108 131 62 139 66 238 118 40 22 107 57 150 79 42 22 79 42 82 46 3 4 39
23 80 44 41 20 89 47 105 59 17 13 65 42 108 64 43 23 90 51 105 61 67 48 179
116 200 123 20 6 22 3 22 -33 0 -66 62 -158 134 -197 26 -14 58 -17 191 -17
171 1 232 12 373 71 18 8 39 14 47 14 7 0 26 6 42 14 43 22 143 66 150 66 6 0
96 42 353 164 30 15 62 31 70 36 8 5 33 18 55 28 71 34 240 124 245 131 3 4
31 20 63 35 32 15 81 44 110 63 29 19 81 49 117 67 35 17 75 41 89 54 13 12
30 22 37 22 7 0 17 6 21 13 4 6 31 23 58 37 28 14 86 49 131 78 44 28 86 52
92 52 14 0 16 -47 2 -52 -15 -5 -34 -159 -25 -213 4 -33 16 -57 35 -77 26 -26
35 -28 102 -28 103 0 210 40 457 170 52 28 102 56 110 64 9 7 45 28 81 47 35
19 106 61 156 94 51 33 114 72 141 87 67 38 80 47 146 96 31 23 61 42 66 42 5
0 11 4 13 8 2 4 20 18 41 31 20 12 37 27 37 32 0 5 7 9 15 9 9 0 18 7 21 15 4
8 10 15 16 15 5 0 58 36 118 81 115 86 131 109 111 162 -15 40 -65 37 -117 -6
-41 -34 -47 -39 -154 -112 -36 -25 -76 -54 -90 -64 -14 -11 -65 -46 -115 -78
-49 -33 -127 -85 -172 -116 -46 -31 -85 -57 -88 -57 -3 0 -64 -36 -137 -81
-126 -77 -168 -100 -338 -188 -97 -51 -214 -101 -234 -101 -8 0 -18 -4 -21
-10 -3 -6 -24 -10 -45 -10 -34 0 -40 4 -46 26 -5 18 0 41 15 71 11 24 21 49
21 55 0 11 29 77 61 140 10 20 19 45 19 56 0 10 9 27 20 37 11 10 20 25 20 34
0 9 6 25 14 36 7 11 19 37 25 58 7 20 16 37 21 37 5 0 14 17 21 38 6 20 15 39
19 42 4 3 22 37 41 75 18 39 39 76 46 83 7 7 13 18 13 24 0 5 9 21 20 35 11
14 20 34 20 43 0 10 28 47 63 83 65 68 209 225 240 261 26 30 137 154 172 191
17 18 50 56 75 85 25 29 73 82 107 118 34 37 63 73 63 80 0 6 4 12 8 12 4 0
32 30 62 66 30 36 62 73 70 81 8 9 35 41 60 72 25 31 51 63 57 71 7 8 42 51
77 95 36 44 74 90 85 103 12 12 21 27 21 32 0 6 4 10 9 10 4 0 30 30 57 66 27
36 60 79 74 95 14 16 47 58 74 94 27 36 53 65 57 65 5 0 9 6 9 13 0 15 19 42
70 97 36 39 108 66 205 78 22 2 45 8 51 13 7 6 35 12 63 16 28 3 54 10 57 14
3 5 22 9 42 9 20 0 50 7 66 15 15 8 39 15 52 15 13 0 41 6 61 14 21 8 67 20
102 27 48 10 69 21 87 42 29 35 29 37 2 72 -20 25 -25 27 -77 22 -31 -3 -85
-13 -121 -22 -36 -9 -85 -20 -110 -24 -25 -4 -58 -13 -73 -20 -16 -6 -43 -11
-61 -11 -17 0 -36 -4 -42 -9 -7 -8 -77 -15 -107 -12 -7 1 16 53 34 75 5 6 20
25 34 42 14 18 25 37 25 42 0 6 6 15 13 19 12 7 76 97 103 144 6 10 17 27 25
36 9 10 21 29 27 43 21 42 38 69 55 88 10 10 17 26 17 35 0 9 5 19 10 22 6 4
24 35 40 70 24 51 30 78 30 129 0 60 -2 66 -29 85 -37 26 -45 26 -104 -7z
m-67 -250 c0 -26 -101 -189 -127 -205 -7 -4 -13 -14 -13 -21 0 -7 -9 -21 -20
-31 -11 -10 -20 -22 -20 -27 0 -5 -18 -31 -40 -57 -22 -26 -40 -51 -40 -56 0
-5 -7 -17 -17 -27 -9 -10 -21 -26 -27 -37 -28 -47 -129 -173 -151 -187 -28
-18 -130 -25 -130 -8 0 9 49 74 85 113 8 9 44 52 79 96 36 44 81 98 100 121
20 22 53 61 75 87 50 61 83 97 162 180 61 62 84 79 84 59z m-622 -876 c-7 -14
-26 -41 -43 -61 -16 -20 -42 -51 -57 -69 -16 -19 -28 -36 -28 -40 0 -3 -8 -14
-17 -24 -10 -10 -36 -40 -58 -66 -22 -26 -50 -60 -62 -75 -13 -14 -23 -29 -23
-33 0 -3 -15 -22 -32 -41 -50 -53 -71 -78 -109 -127 -18 -24 -45 -57 -59 -72
-14 -16 -37 -43 -52 -61 -104 -127 -178 -210 -214 -240 -20 -17 -20 -16 -16
13 2 17 7 30 11 30 8 0 61 78 61 89 0 5 9 16 20 26 11 10 20 24 20 31 0 8 9
19 20 26 11 7 20 21 20 30 0 10 9 22 20 28 11 6 20 17 20 24 0 7 11 23 25 36
14 13 25 28 25 35 0 6 8 18 18 27 9 9 40 47 67 84 28 38 53 71 58 72 4 2 7 8
7 14 0 11 61 94 98 134 12 14 22 30 22 36 0 6 7 18 15 27 31 33 65 79 65 88 0
30 95 81 153 82 37 1 37 0 25 -23z m-6278 -1040 c0 -7 -8 -24 -19 -37 -10 -13
-21 -34 -25 -46 -4 -13 -11 -23 -16 -23 -4 0 -20 -19 -34 -42 -15 -24 -42 -63
-61 -88 -19 -25 -38 -52 -42 -60 -3 -8 -21 -33 -38 -55 -29 -38 -57 -77 -80
-114 -5 -9 -27 -37 -47 -62 -21 -26 -38 -51 -38 -57 0 -18 -60 -61 -99 -72
-39 -10 -88 -8 -83 3 1 4 2 11 2 17 0 5 8 17 18 27 10 10 56 65 102 123 46 58
91 112 99 121 21 22 46 52 104 124 27 33 64 74 83 92 19 18 34 36 34 40 0 12
117 123 129 123 6 0 11 -6 11 -14z m-626 -874 c-9 -15 -25 -36 -35 -48 -11
-11 -19 -24 -19 -28 0 -4 -16 -24 -35 -44 -20 -20 -77 -89 -127 -152 -50 -63
-97 -119 -104 -123 -8 -4 -14 -13 -14 -18 0 -11 -258 -321 -342 -410 -10 -11
-18 -22 -19 -26 0 -5 -21 -25 -45 -47 l-44 -39 21 48 c12 26 36 68 55 94 19
25 40 55 48 66 9 11 27 34 41 51 14 18 25 37 25 43 0 7 6 14 14 17 8 3 19 18
26 34 7 16 18 31 26 34 8 3 14 12 14 19 0 8 9 22 20 32 11 10 20 24 20 32 0 7
6 16 14 19 8 3 20 19 26 35 7 16 17 29 22 29 5 0 12 8 15 18 4 9 33 49 65 89
32 39 58 74 58 77 0 6 22 36 100 138 11 14 20 30 20 35 0 22 138 69 163 55 4
-2 0 -16 -9 -30z m3840 -468 c-10 -14 -45 -45 -78 -69 -52 -37 -92 -56 -221
-105 -41 -16 -135 -33 -143 -26 -4 4 5 17 19 29 42 35 177 117 192 117 7 0 18
5 24 11 20 20 149 68 186 68 l37 1 -16 -26z m-2947 -779 c48 -20 53 -29 53
-92 0 -58 -1 -59 -85 -128 -64 -52 -147 -125 -160 -141 -5 -6 -46 -38 -90 -70
-44 -32 -107 -81 -140 -109 -108 -91 -294 -225 -413 -296 -40 -24 -89 -54
-110 -67 -61 -37 -143 -72 -170 -72 -23 0 -24 3 -18 38 8 53 116 258 148 282
4 3 20 24 35 47 35 51 84 111 143 173 25 26 65 69 90 96 64 70 166 154 270
224 50 33 93 60 95 60 3 0 33 13 67 29 79 37 87 38 176 40 45 1 87 -5 109 -14z"/>
<path d="M6850 3015 c-7 -8 -18 -15 -25 -15 -15 0 -36 -48 -44 -100 -5 -31
-10 -35 -38 -38 -18 -2 -34 -7 -34 -13 -5 -28 -1 -33 31 -44 l35 -12 3 -201 2
-202 25 -6 c13 -3 28 -3 33 0 6 3 10 84 11 188 0 101 2 192 4 203 3 16 14 21
60 25 60 6 83 19 74 44 -5 12 -20 16 -56 16 -84 0 -96 13 -66 70 13 25 22 30
53 30 46 0 76 19 70 46 -3 16 -13 19 -64 22 -45 2 -64 -1 -74 -13z"/>
<path d="M5093 2868 c-50 -17 -110 -79 -132 -140 -31 -83 -35 -123 -17 -158 8
-18 18 -46 21 -64 8 -37 41 -78 87 -106 43 -26 167 -28 214 -2 41 22 86 77 82
99 -3 19 -58 32 -58 14 0 -6 -17 -22 -37 -36 -69 -46 -199 -25 -218 37 -15 45
-21 133 -13 176 9 53 34 83 88 107 55 25 104 14 153 -36 31 -30 44 -38 63 -33
56 14 5 92 -86 133 -49 22 -96 25 -147 9z"/>
<path d="M5949 2857 c-51 -25 -98 -73 -99 -99 0 -10 9 -22 21 -28 18 -10 25
-6 57 28 61 66 165 67 211 3 32 -44 28 -69 -11 -75 -18 -3 -49 -7 -68 -10 -76
-12 -133 -26 -165 -42 -80 -38 -83 -191 -5 -237 32 -19 174 -24 185 -7 4 6 21
16 38 24 29 11 33 11 50 -11 24 -30 55 -30 63 1 3 13 4 98 2 188 -3 147 -6
166 -26 199 -48 77 -168 109 -253 66z m210 -255 c11 -20 -13 -76 -48 -116 -55
-64 -198 -58 -215 8 -15 61 37 104 139 116 102 12 114 11 124 -8z"/>
<path d="M7559 2862 c-85 -40 -137 -117 -146 -220 -9 -93 47 -206 119 -243 45
-23 153 -26 202 -5 44 18 97 76 94 101 -5 34 -43 30 -77 -7 -27 -30 -34 -33
-102 -36 -87 -5 -114 10 -151 84 -22 45 -22 46 -3 60 18 14 77 18 265 19 l75
0 -2 69 c-3 89 -32 135 -109 171 -61 29 -113 31 -165 7z m148 -71 c46 -22 59
-40 64 -91 l4 -35 -138 -3 c-118 -2 -138 0 -143 13 -9 23 32 98 64 118 36 22
97 21 149 -2z"/>
</g>
</svg>
